<svg width="34" height="34" viewBox="0 0 34 34" fill="none" xmlns="http://www.w3.org/2000/svg">
<g clip-path="url(#clip0_41_2)">
<path d="M0.636257 17.5133L0.636299 17.5133L1.91161 17.0435L0.689269 18.2659L0.51274 17.7801C0.51273 17.7801 0.51272 17.7801 0.512709 17.7801C0.473453 17.6717 0.529206 17.5527 0.636257 17.5133Z" fill="url(#paint0_linear_41_2)" stroke="black"/>
<path d="M6.17908 33.363L4.90937 29.8713L7.96514 32.9272L6.44705 33.487L6.44704 33.487L6.44425 33.488C6.42375 33.4957 6.4014 33.5 6.37494 33.5C6.34717 33.5 6.31666 33.4938 6.286 33.4796L6.28436 33.4789C6.23653 33.4569 6.19787 33.4152 6.17963 33.3646L6.17908 33.363Z" fill="url(#paint1_linear_41_2)" stroke="black"/>
<path d="M33.4872 23.3064L33.4867 23.3052L31.4205 17.6242L27.9825 21.0622L28.6207 20.8271C29.2479 20.5898 29.9455 20.9172 30.1745 21.5421C30.4059 22.1681 30.0848 22.8634 29.459 23.0934L33.4872 23.3064ZM33.4872 23.3064C33.5264 23.4134 33.472 23.5318 33.3637 23.5714L33.3629 23.5717L20.8741 28.1735L24.8069 24.2406C25.0115 24.3875 25.2592 24.4687 25.5135 24.4687C25.6543 24.4687 25.7948 24.4442 25.9311 24.3941L25.9316 24.3939L29.4582 23.0937L33.4872 23.3064Z" fill="url(#paint2_linear_41_2)" stroke="black"/>
<path d="M22.1056 0.560709L22.1056 0.560735L33.4377 11.8931C33.4379 11.8932 33.438 11.8933 33.4381 11.8934C33.5197 11.9759 33.5197 12.1079 33.4381 12.1904C33.438 12.1905 33.4379 12.1906 33.4377 12.1907L12.191 33.4379C12.1908 33.4381 12.1906 33.4383 12.1904 33.4385C12.1483 33.4799 12.0949 33.5 12.0415 33.5C11.9875 33.5 11.936 33.4797 11.8967 33.44L11.895 33.4383L0.561959 22.105L0.561929 22.1049C0.48102 22.024 0.480928 21.8915 0.561993 21.8104L21.8113 0.560735L21.8113 0.560709C21.8922 0.479764 22.0247 0.479764 22.1056 0.560709ZM8.64664 19.9803L8.64757 19.9793C9.11862 19.5058 9.11593 18.7422 8.64528 18.2715L8.64521 18.2714C8.17372 17.8 7.40808 17.8 6.93659 18.2714L6.93656 18.2715L4.10331 21.1047L4.10328 21.1048C3.63184 21.5763 3.63175 22.342 4.10334 22.8135L4.10504 22.8152C4.34043 23.0483 4.64939 23.1668 4.95834 23.1668C5.26747 23.1668 5.5763 23.0481 5.81152 22.8153L5.81337 22.8135L8.64664 19.9803ZM12.3888 16.4859L12.3889 16.4864C12.6587 17.6405 13.3421 18.7912 14.2914 19.7405C15.5844 21.0352 17.1684 21.7685 18.5848 21.7685C19.4498 21.7685 20.2672 21.4917 20.8791 20.8798C21.6937 20.0652 21.9106 18.9005 21.6837 17.7293C21.4567 16.5583 20.7828 15.3342 19.7402 14.2923C18.7906 13.3411 17.6396 12.6593 16.4858 12.3895L16.4858 12.3895C15.1957 12.088 13.9846 12.3195 13.1523 13.1535L13.1523 13.1535C12.3207 13.9869 12.0889 15.1972 12.3888 16.4859ZM29.8959 12.897L29.8968 12.8961C30.3679 12.4226 30.3652 11.6589 29.8945 11.1882L29.8945 11.1882C29.423 10.7168 28.6573 10.7167 28.1858 11.1882L25.3525 14.0215L25.3525 14.0216C24.8811 14.4931 24.881 15.2588 25.3525 15.7303L25.3543 15.732C25.5897 15.9651 25.8987 16.0836 26.2076 16.0836C26.5168 16.0836 26.8255 15.9648 27.0607 15.7322L27.0626 15.7303L29.8959 12.897Z" fill="url(#paint3_linear_41_2)" stroke="black"/>
</g>
<defs>
<linearGradient id="paint0_linear_41_2" x1="1.93732" y1="15.7875" x2="1.93732" y2="19.1747" gradientUnits="userSpaceOnUse">
<stop stop-color="#E2F685"/>
<stop offset="1" stop-color="#8AF9AD"/>
</linearGradient>
<linearGradient id="paint1_linear_41_2" x1="6.27016" y1="27.924" x2="6.27016" y2="34" gradientUnits="userSpaceOnUse">
<stop stop-color="#E2F685"/>
<stop offset="1" stop-color="#8AF9AD"/>
</linearGradient>
<linearGradient id="paint2_linear_41_2" x1="2" y1="17" x2="34" y2="17" gradientUnits="userSpaceOnUse">
<stop stop-color="#E2F685"/>
<stop offset="1" stop-color="#8AF9AD"/>
</linearGradient>
<linearGradient id="paint3_linear_41_2" x1="6" y1="10.5" x2="34" y2="22.5" gradientUnits="userSpaceOnUse">
<stop stop-color="#E2F685"/>
<stop offset="1" stop-color="#8AF9AD"/>
</linearGradient>
<clipPath id="clip0_41_2">
<rect width="34" height="34" fill="white"/>
</clipPath>
</defs>
</svg>
