<svg width="52" height="105" viewBox="0 0 52 105" fill="none" xmlns="http://www.w3.org/2000/svg">
<mask id="mask0_14_250" style="mask-type:alpha" maskUnits="userSpaceOnUse" x="0" y="0" width="52" height="105">
<path d="M0 4.99151L26 0L52 4.99151V100.543L26 105L0 100.543V4.99151Z" fill="#05030E"/>
</mask>
<g mask="url(#mask0_14_250)">
<path d="M0 33.6887L26.0441 22.4697L52.0883 33.6887V248.453L26.0441 258.47L0 248.453V33.6887Z" fill="#D5AB32"/>
<g opacity="0.25">
<path d="M0 12.8535L26.0441 1.63452L52.0883 12.8535V227.618L26.0441 237.635L0 227.618V12.8535Z" fill="#DC9839" fill-opacity="0.6"/>
<mask id="mask1_14_250" style="mask-type:alpha" maskUnits="userSpaceOnUse" x="0" y="1" width="53" height="237">
<path d="M0 12.8535L26.0441 1.63452L52.0883 12.8535V227.618L26.0441 237.635L0 227.618V12.8535Z" fill="#7EE8A0"/>
</mask>
<g mask="url(#mask1_14_250)">
<path d="M-18.4313 5.64136L26.4448 22.8706V238.035L-11.2191 223.611L-18.4313 5.64136Z" fill="#DC9839" fill-opacity="0.6"/>
</g>
</g>
<g opacity="0.5">
<path d="M0 21.6685L26.0441 10.4495L52.0883 21.6685V236.432L26.0441 246.449L0 236.432V21.6685Z" fill="#DC9839" fill-opacity="0.6"/>
<mask id="mask2_14_250" style="mask-type:alpha" maskUnits="userSpaceOnUse" x="0" y="10" width="53" height="237">
<path d="M0 21.6685L26.0441 10.4495L52.0883 21.6685V236.432L26.0441 246.449L0 236.432V21.6685Z" fill="#7EE8A0"/>
</mask>
<g mask="url(#mask2_14_250)">
<path d="M-18.4313 14.4563L26.4448 31.6855V246.85L-11.2191 232.426L-18.4313 14.4563Z" fill="#DC9839" fill-opacity="0.6"/>
</g>
</g>
</g>
<mask id="mask3_14_250" style="mask-type:alpha" maskUnits="userSpaceOnUse" x="0" y="5" width="52" height="100">
<path d="M0 9.75382L26 5L52 9.75382V100.756L26 105L0 100.756V9.75382Z" fill="#7EE8A0"/>
</mask>
<g mask="url(#mask3_14_250)">
<path d="M-18.4312 28.8081L26.4448 46.0373V261.202L-11.219 246.778L-18.4312 28.8081Z" fill="#BF8C44" fill-opacity="0.6"/>
</g>
</svg>
